<?xml version="1.0" encoding="iso-8859-1"?>
<!-- Generator: Adobe Illustrator 16.0.0, SVG Export Plug-In . SVG Version: 6.00 Build 0)  -->
<!DOCTYPE svg PUBLIC "-//W3C//DTD SVG 1.1//EN" "http://www.w3.org/Graphics/SVG/1.1/DTD/svg11.dtd">
<svg version="1.1" id="Capa_1" xmlns="http://www.w3.org/2000/svg" xmlns:xlink="http://www.w3.org/1999/xlink" x="0px" y="0px"
	 width="612px" height="612px" viewBox="0 0 612 612" style="enable-background:new 0 0 612 612;" xml:space="preserve">
<g>
	<g id="_x33__8_">
		<g>
			<path d="M573.75,267.75L459,344.25c0-23.218-10.557-43.758-26.89-57.796c38.881-23.428,65.14-65.637,65.14-114.329
				c0-73.938-59.938-133.875-133.875-133.875c-73.937,0-133.875,59.938-133.875,133.875c0,37.504,15.51,71.317,40.373,95.625
				h-70.151c18.322-20.33,29.778-46.971,29.778-76.5c0-63.38-51.37-114.75-114.75-114.75S0,127.87,0,191.25
				c0,34.578,15.625,65.216,39.818,86.254C16.199,290.528,0,315.371,0,344.25v153c0,42.247,34.253,76.5,76.5,76.5h306
				c42.247,0,76.5-34.253,76.5-76.5v-19.125l114.75,95.625c21.133,0,38.25-17.117,38.25-38.25V306
				C612,284.867,594.883,267.75,573.75,267.75z M38.25,191.25c0-42.247,34.253-76.5,76.5-76.5s76.5,34.253,76.5,76.5
				s-34.253,76.5-76.5,76.5S38.25,233.497,38.25,191.25z M420.75,497.25c0,21.114-17.117,38.25-38.25,38.25h-306
				c-21.133,0-38.25-17.117-38.25-38.25v-153c0-21.133,17.117-38.25,38.25-38.25h306c21.133,0,38.25,17.117,38.25,38.25V497.25z
				 M363.375,267.96c-52.938,0-95.835-42.917-95.835-95.835c0-52.938,42.917-95.835,95.835-95.835s95.835,42.897,95.835,95.835
				S416.312,267.96,363.375,267.96z M573.75,535.5L459,439.875V382.5L573.75,306V535.5z"/>
		</g>
	</g>
</g>
<g>
</g>
<g>
</g>
<g>
</g>
<g>
</g>
<g>
</g>
<g>
</g>
<g>
</g>
<g>
</g>
<g>
</g>
<g>
</g>
<g>
</g>
<g>
</g>
<g>
</g>
<g>
</g>
<g>
</g>
</svg>
