{
  "accessors": [
    {
      "bufferView": 2,
      "componentType": 5126,
      "count": 3434,
      "max": [
        0.27205300331115723,
        0.4341450035572052,
        1.708372950553894
      ],
      "min": [
        -0.2989409863948822,
        -0.30472001433372498,
        -0.0032180000562220812
      ],
      "type": "VEC3"
    },
    {
      "bufferView": 2,
      "byteOffset": 41208,
      "componentType": 5126,
      "count": 3434,
      "max": [
        0.99994564056396484,
        0.99978667497634888,
        0.99990940093994141
      ],
      "min": [
        -0.99906289577484131,
        -0.99954956769943237,
        -0.99999117851257324
      ],
      "type": "VEC3"
    },
    {
      "bufferView": 1,
      "componentType": 5126,
      "count": 3434,
      "max": [
        0.87699598073959351,
        0.85403400659561157
      ],
      "min": [
        0.12039799988269806,
        0.12039799988269806
      ],
      "type": "VEC2"
    },
    {
      "bufferView": 0,
      "componentType": 5125,
      "count": 15129,
      "max": [
        3433
      ],
      "min": [
        0
      ],
      "type": "SCALAR"
    }
  ],
  "asset": {
    "extras": {
      "author": "Ivan Norman (https://sketchfab.com/vanidza)",
      "license": "CC-BY-NC-4.0 (http://creativecommons.org/licenses/by-nc/4.0/)",
      "source": "https://sketchfab.com/3d-models/cartoon-girl-a4bf221f620e49f8bc7af53e6d6a4f3c",
      "title": "Cartoon girl"
    },
    "generator": "Sketchfab-7.75.0",
    "version": "2.0"
  },
  "bufferViews": [
    {
      "buffer": 0,
      "byteLength": 60516,
      "byteOffset": 0,
      "name": "floatBufferViews",
      "target": 34963
    },
    {
      "buffer": 0,
      "byteLength": 27472,
      "byteOffset": 60516,
      "byteStride": 8,
      "name": "floatBufferViews",
      "target": 34962
    },
    {
      "buffer": 0,
      "byteLength": 82416,
      "byteOffset": 87988,
      "byteStride": 12,
      "name": "floatBufferViews",
      "target": 34962
    }
  ],
  "buffers": [
    {
      "byteLength": 170404,
      "uri": "scene.bin"
    }
  ],
  "images": [
    {
      "uri": "textures/Girl_baseColor.png"
    }
  ],
  "materials": [
    {
      "doubleSided": true,
      "name": "Girl",
      "pbrMetallicRoughness": {
        "baseColorFactor": [
          1,
          1,
          1,
          1
        ],
        "baseColorTexture": {
          "index": 0,
          "texCoord": 0
        },
        "metallicFactor": 0,
        "roughnessFactor": 0.25
      }
    }
  ],
  "meshes": [
    {
      "primitives": [
        {
          "attributes": {
            "NORMAL": 1,
            "POSITION": 0,
            "TEXCOORD_0": 2
          },
          "indices": 3,
          "material": 0,
          "mode": 4
        }
      ]
    }
  ],
  "nodes": [
    {
      "children": [
        1
      ],
      "name": "RootNode (gltf orientation matrix)",
      "rotation": [
        -0.70710678118654746,
        -0,
        -0,
        0.70710678118654757
      ]
    },
    {
      "children": [
        2
      ],
      "name": "RootNode (model correction matrix)"
    },
    {
      "children": [
        3
      ],
      "name": "3a17da91ed5b46bba220f21a2e0fbd1d.obj.cleaner.materialmerger.gles"
    },
    {
      "mesh": 0,
      "name": ""
    }
  ],
  "samplers": [
    {
      "magFilter": 9729,
      "minFilter": 9987,
      "wrapS": 10497,
      "wrapT": 10497
    }
  ],
  "scene": 0,
  "scenes": [
    {
      "name": "OSG_Scene",
      "nodes": [
        0
      ]
    }
  ],
  "textures": [
    {
      "sampler": 0,
      "source": 0
    }
  ]
}

